name C:\Users\tom_v\MusculoskeletalSpecialization_revisited\Results\Case_12\motion.mot
datacolumns 32
datarows 8
range 0.20232652 0.23065223
endheader 
time	pelvis_tilt	pelvis_list	pelvis_rotation	pelvis_tx	pelvis_ty	pelvis_tz	hip_flexion_r	hip_adduction_r	hip_rotation_r	knee_angle_r	ankle_angle_r	subtalar_angle_r	mtp_angle_r	hip_flexion_l	hip_adduction_l	hip_rotation_l	knee_angle_l	ankle_angle_l	subtalar_angle_l	mtp_angle_l	lumbar_extension	lumbar_bending	lumbar_rotation	arm_flex_r	arm_add_r	arm_rot_r	elbow_flex_r	arm_flex_l	arm_add_l	arm_rot_l	elbow_flex_l	
          0.20232652	         -6.41415642	          4.30556619	        -11.41948337	          1.91926912	          0.95364179	          0.01844928	         14.45667905	         -6.14513970	         -1.25805082	        -61.48708290	         -9.08289489	          3.20157618	          1.20412863	         26.75447043	          5.90862262	         -9.99794708	         -3.49219597	          0.18877755	        -28.52841457	         -1.23662824	        -12.27049709	         -8.30705254	         10.37133630	          8.78549867	        -18.03478112	         -0.76941589	         30.16893012	        -15.38582681	        -13.97856557	        -12.17441508	         29.43834404	
          0.20637305	         -6.92145912	          3.68375768	         -9.83755208	          1.95908854	          0.95154234	          0.01860623	         16.15526137	         -5.35551756	         -2.16864512	        -62.31255226	         -7.15196083	          4.21672672	         -1.33910692	         25.09906456	          6.03997712	         -9.80733552	         -2.79351863	         -2.44169429	        -27.63600623	          1.16881445	        -11.50178966	         -7.63191101	         10.11548659	          8.92156657	        -15.87647640	          6.68989215	         16.59175556	         -7.61724545	        -16.15138311	        -11.49226115	         21.16708934	
          0.21041958	         -7.52806924	          2.93696485	         -8.16902204	          1.99888322	          0.94850308	          0.01880992	         18.05719445	         -4.49209353	         -3.16045875	        -63.20832486	         -6.30515891	          4.60150759	         -4.08695459	         23.57824763	          5.95048517	         -9.19010268	         -2.30906179	         -5.07131120	        -27.79595119	          3.12251851	        -10.64642052	         -6.85803811	          9.87242663	          7.46491297	        -13.15198505	         13.80182665	          6.43482910	         -0.57299766	        -18.16838476	        -11.52159616	         15.34803442	
          0.21446611	         -8.16414827	          2.08708170	         -6.43548383	          2.03875384	          0.94476051	          0.01901065	         20.06732592	         -3.63187964	         -4.22219522	        -64.13425853	         -6.16052433	          4.97636202	         -1.18339979	         22.10164142	          5.68660927	         -8.49853191	         -2.05118983	         -9.70017088	        -29.16413809	          4.99236754	         -9.77423363	         -6.03601381	          9.60368672	          4.12244918	        -10.39837675	         18.29336879	          0.94054718	          5.33072984	        -20.08629253	        -12.33847180	         13.05703707	
          0.21851264	         -8.75302162	          1.22440016	         -4.59746574	          2.07867476	          0.94065356	          0.01898532	         22.08261245	         -2.94294556	         -5.38515705	        -65.08658815	         -4.67543098	          6.04363348	          1.14459011	         20.69768590	          5.38882466	         -7.49204190	         -2.75906435	        -11.62019998	        -28.81880039	          5.43224239	         -8.97329570	         -5.26561815	          9.20137110	         -0.79920369	         -8.16146648	         19.35028049	          0.35785267	          9.85844703	        -21.94675350	        -13.13928391	         14.76519416	
          0.22255917	         -9.20769861	          0.80957346	         -2.53649559	          2.11836615	          0.93687597	          0.01815720	         24.09332949	         -3.06390782	         -6.66560843	        -66.13673817	         -2.98058077	          7.23582139	          2.97042428	         19.32375728	          5.75724421	         -3.90103189	         -4.54382359	         -6.83391665	        -29.59215650	          7.45200960	         -8.38737576	         -5.02154301	          8.44636461	         -7.05522251	         -6.49030742	         16.46053060	          4.70190453	         13.00610734	        -23.84322337	        -12.99107170	         20.44451792	
          0.22660570	         -9.41909786	          0.84462776	         -0.34274068	          2.15774279	          0.93385011	          0.01652955	         25.94730554	         -3.92776008	         -7.87737434	        -67.24388975	         -1.85060950	          8.04461201	          4.32955459	         17.58462957	          6.88831556	          1.15458173	         -5.78868535	         -4.81716950	        -34.19039981	          9.32557381	         -8.20064004	         -5.25916791	          7.42039070	        -14.62301730	         -4.92163271	          9.97624743	         13.48290091	         15.00348818	        -25.98213791	        -11.34540632	         29.43663869	
          0.23065223	         -9.40292456	          0.89740206	          1.81879459	          2.19679124	          0.93141355	          0.01468345	         27.59065965	         -4.83365224	         -8.86535090	        -68.26640125	         -1.02041814	          8.36296787	          5.11853433	         15.46620474	          7.91787009	          5.93021251	         -6.81350772	         -3.51344685	        -38.58565340	         10.92604701	         -8.38107633	         -5.45422616	          6.30418184	        -22.96914343	         -2.84590591	          3.00829966	         24.56364639	         16.45597552	        -28.57426729	         -8.56034187	         40.14312667	
